<svg width="60" height="66" viewBox="0 0 60 66" fill="none" xmlns="http://www.w3.org/2000/svg">
<g filter="url(#filter0_d_322_63)">
<path d="M27.5 1.44338C29.047 0.550212 30.953 0.550212 32.5 1.44338L52.6147 13.0566C54.1617 13.9498 55.1147 15.6004 55.1147 17.3868V40.6132C55.1147 42.3996 54.1617 44.0502 52.6147 44.9434L32.5 56.5566C30.953 57.4498 29.047 57.4498 27.5 56.5566L7.38526 44.9434C5.83826 44.0502 4.88526 42.3996 4.88526 40.6132V17.3868C4.88526 15.6004 5.83826 13.9498 7.38526 13.0566L27.5 1.44338Z" fill="#D9D9D9"/>
</g>
<g filter="url(#filter1_i_322_63)">
<path d="M27.3287 27.6946C27.08 27.8722 26.7603 27.9788 26.3695 27.9788H24.167V25.6697H26.2274C26.4406 25.6697 26.6182 25.6697 26.7958 25.7052C26.9734 25.7407 27.1155 25.8118 27.2576 25.8828C27.3997 25.9894 27.5063 26.096 27.5774 26.238C27.6484 26.3801 27.6839 26.5933 27.6839 26.8064C27.6839 27.1972 27.5774 27.5169 27.3287 27.6946Z" fill="#7C7C7C"/>
<path d="M27.08 32.0996C26.9024 32.1351 26.6892 32.1707 26.4761 32.1707H24.167V29.4353H26.5116C26.9734 29.4353 27.3642 29.5418 27.6484 29.755C27.9326 30.0037 28.0747 30.3589 28.0747 30.8562C28.0747 31.1049 28.0037 31.3181 27.9326 31.4957C27.826 31.6733 27.7195 31.7799 27.5774 31.8865C27.4353 31.993 27.2576 32.0641 27.08 32.0996Z" fill="#7C7C7C"/>
<path d="M34.4691 28.0143C34.9309 28.0143 35.3217 28.1564 35.5704 28.405C35.8191 28.6537 35.9967 29.009 36.0677 29.5418H32.8705C32.8705 29.4241 32.8949 29.3064 32.9235 29.1685C32.9294 29.1399 32.9355 29.1105 32.9416 29.08C32.9771 28.9024 33.0481 28.7248 33.1902 28.5827C33.3323 28.4406 33.4744 28.2985 33.6876 28.1919C33.9007 28.0853 34.1494 28.0143 34.4691 28.0143Z" fill="#7C7C7C"/>
<path fill-rule="evenodd" clip-rule="evenodd" d="M19 13C16.2386 13 14 15.2386 14 18V40C14 42.7614 16.2386 45 19 45H41C43.7614 45 46 42.7614 46 40V18C46 15.2386 43.7614 13 41 13H19ZM27.9326 24.1421C27.5418 24.0355 27.1155 24 26.6537 24H22V33.8048H26.7603C27.1866 33.8048 27.6129 33.7337 28.0392 33.6272C28.4655 33.5206 28.8562 33.343 29.176 33.1298C29.4957 32.9167 29.7799 32.597 29.9575 32.2417C30.1351 31.8865 30.2417 31.4602 30.2417 30.9628C30.2417 30.3589 30.0641 29.826 29.7799 29.3997C29.4957 28.9734 29.0339 28.6537 28.4299 28.4761C28.8562 28.263 29.2115 27.9788 29.4246 27.659C29.6733 27.3393 29.7799 26.913 29.7799 26.4157C29.7799 25.9894 29.7088 25.5986 29.5667 25.2789C29.4246 24.9592 29.2115 24.7105 28.9273 24.5329C28.6431 24.3552 28.3234 24.2131 27.9326 24.1421ZM34.6112 32.5614C34.0428 32.5614 33.6165 32.4193 33.3323 32.1351C33.0481 31.8509 32.835 31.3181 32.835 30.7497H37.9861C38.0216 30.1813 37.9861 29.6839 37.915 29.1866C37.7729 28.6892 37.5598 28.2274 37.2756 27.8367C36.9914 27.4104 36.6361 27.1262 36.1743 26.8775C35.7125 26.6288 35.1796 26.5222 34.5757 26.5222C34.0073 26.5222 33.5455 26.6288 33.0837 26.8064C32.6574 26.9841 32.2666 27.2683 31.9469 27.588C31.6272 27.9432 31.3785 28.334 31.2009 28.7958C31.0232 29.2576 30.9522 29.755 30.9522 30.2879C30.9522 30.8562 31.0232 31.3536 31.2009 31.8154C31.343 32.2772 31.5916 32.668 31.9114 32.9877C32.2311 33.343 32.5863 33.5916 33.0481 33.7693C33.51 33.9469 34.0073 34.0535 34.5757 34.0535C35.3928 34.0535 36.0677 33.8403 36.6361 33.4851C37.2045 33.0943 37.6308 32.4904 37.915 31.6378H36.1743C36.1033 31.8509 35.9256 32.0641 35.6414 32.2772C35.3572 32.4549 35.002 32.5614 34.6112 32.5614ZM36.423 24.675H32.4442V25.6341H36.423V24.675Z" fill="#7C7C7C"/>
</g>
<defs>
<filter id="filter0_d_322_63" x="0.884766" y="0.77356" width="58.2305" height="64.4529" filterUnits="userSpaceOnUse" color-interpolation-filters="sRGB">
<feFlood flood-opacity="0" result="BackgroundImageFix"/>
<feColorMatrix in="SourceAlpha" type="matrix" values="0 0 0 0 0 0 0 0 0 0 0 0 0 0 0 0 0 0 127 0" result="hardAlpha"/>
<feOffset dy="4"/>
<feGaussianBlur stdDeviation="2"/>
<feComposite in2="hardAlpha" operator="out"/>
<feColorMatrix type="matrix" values="0 0 0 0 0 0 0 0 0 0 0 0 0 0 0 0 0 0 0.25 0"/>
<feBlend mode="normal" in2="BackgroundImageFix" result="effect1_dropShadow_322_63"/>
<feBlend mode="normal" in="SourceGraphic" in2="effect1_dropShadow_322_63" result="shape"/>
</filter>
<filter id="filter1_i_322_63" x="14" y="13" width="32" height="35" filterUnits="userSpaceOnUse" color-interpolation-filters="sRGB">
<feFlood flood-opacity="0" result="BackgroundImageFix"/>
<feBlend mode="normal" in="SourceGraphic" in2="BackgroundImageFix" result="shape"/>
<feColorMatrix in="SourceAlpha" type="matrix" values="0 0 0 0 0 0 0 0 0 0 0 0 0 0 0 0 0 0 127 0" result="hardAlpha"/>
<feOffset dy="4"/>
<feGaussianBlur stdDeviation="1.5"/>
<feComposite in2="hardAlpha" operator="arithmetic" k2="-1" k3="1"/>
<feColorMatrix type="matrix" values="0 0 0 0 0 0 0 0 0 0 0 0 0 0 0 0 0 0 0.25 0"/>
<feBlend mode="normal" in2="shape" result="effect1_innerShadow_322_63"/>
</filter>
</defs>
</svg>
