<svg width="54" height="579" viewBox="0 0 54 579" fill="none" xmlns="http://www.w3.org/2000/svg">
<line x1="27" y1="3" x2="27" y2="576" stroke="#8EAABE" stroke-width="6" stroke-linecap="round"/>
<circle cx="27" cy="73" r="27" fill="#8EAABE"/>
<circle cx="27" cy="284" r="27" fill="#8EAABE"/>
<circle cx="27" cy="495" r="27" fill="#8EAABE"/>
<path d="M22.35 82.275C20.9333 82.275 19.65 81.8917 18.5 81.125C17.35 80.3583 16.4417 79.2917 15.775 77.925C15.125 76.5417 14.8 74.95 14.8 73.15C14.8 71.3333 15.125 69.75 15.775 68.4C16.425 67.0333 17.3167 65.975 18.45 65.225C19.5833 64.4583 20.8667 64.075 22.3 64.075C23.75 64.075 25.0417 64.4583 26.175 65.225C27.3083 65.975 28.2 67.0333 28.85 68.4C29.5167 69.7667 29.85 71.3583 29.85 73.175C29.85 74.9917 29.5167 76.5833 28.85 77.95C28.2 79.3167 27.3083 80.3833 26.175 81.15C25.0583 81.9 23.7833 82.275 22.35 82.275ZM22.325 78.8C23.0583 78.8 23.6917 78.5917 24.225 78.175C24.7583 77.7417 25.1667 77.1083 25.45 76.275C25.75 75.425 25.9 74.3917 25.9 73.175C25.9 71.9417 25.75 70.9083 25.45 70.075C25.1667 69.2417 24.7583 68.6167 24.225 68.2C23.6917 67.7667 23.05 67.55 22.3 67.55C21.5833 67.55 20.95 67.7583 20.4 68.175C19.8667 68.5917 19.4583 69.2167 19.175 70.05C18.8917 70.8833 18.75 71.9167 18.75 73.15C18.75 74.3833 18.8917 75.4167 19.175 76.25C19.4583 77.0833 19.8667 77.7167 20.4 78.15C20.95 78.5833 21.5917 78.8 22.325 78.8ZM34.5504 82V64.35H38.4504V82H34.5504ZM31.1504 67.675V64.35H38.2004V67.675H31.1504Z" fill="#21272F"/>
<path d="M21.35 293.275C19.9333 293.275 18.65 292.892 17.5 292.125C16.35 291.358 15.4417 290.292 14.775 288.925C14.125 287.542 13.8 285.95 13.8 284.15C13.8 282.333 14.125 280.75 14.775 279.4C15.425 278.033 16.3167 276.975 17.45 276.225C18.5833 275.458 19.8667 275.075 21.3 275.075C22.75 275.075 24.0417 275.458 25.175 276.225C26.3083 276.975 27.2 278.033 27.85 279.4C28.5167 280.767 28.85 282.358 28.85 284.175C28.85 285.992 28.5167 287.583 27.85 288.95C27.2 290.317 26.3083 291.383 25.175 292.15C24.0583 292.9 22.7833 293.275 21.35 293.275ZM21.325 289.8C22.0583 289.8 22.6917 289.592 23.225 289.175C23.7583 288.742 24.1667 288.108 24.45 287.275C24.75 286.425 24.9 285.392 24.9 284.175C24.9 282.942 24.75 281.908 24.45 281.075C24.1667 280.242 23.7583 279.617 23.225 279.2C22.6917 278.767 22.05 278.55 21.3 278.55C20.5833 278.55 19.95 278.758 19.4 279.175C18.8667 279.592 18.4583 280.217 18.175 281.05C17.8917 281.883 17.75 282.917 17.75 284.15C17.75 285.383 17.8917 286.417 18.175 287.25C18.4583 288.083 18.8667 288.717 19.4 289.15C19.95 289.583 20.5917 289.8 21.325 289.8ZM30.2504 290.8L37.0254 283.8C37.4421 283.383 37.7754 283 38.0254 282.65C38.2754 282.3 38.4587 281.975 38.5754 281.675C38.6921 281.358 38.7504 281.042 38.7504 280.725C38.7504 280.042 38.5254 279.508 38.0754 279.125C37.6421 278.725 37.0671 278.525 36.3504 278.525C35.6504 278.525 35.0171 278.717 34.4504 279.1C33.9004 279.467 33.3671 280.075 32.8504 280.925L30.2254 278.65C30.9254 277.467 31.8171 276.575 32.9004 275.975C33.9837 275.375 35.2254 275.075 36.6254 275.075C37.8421 275.075 38.8921 275.3 39.7754 275.75C40.6754 276.2 41.3671 276.842 41.8504 277.675C42.3504 278.508 42.6004 279.483 42.6004 280.6C42.6004 281.3 42.5087 281.95 42.3254 282.55C42.1421 283.133 41.8421 283.717 41.4254 284.3C41.0254 284.867 40.4837 285.492 39.8004 286.175L35.1004 290.85L30.2504 290.8ZM30.2504 293V290.8L33.5754 289.65H42.9504V293H30.2504Z" fill="#21272F"/>
<path d="M19.35 504.275C17.9333 504.275 16.65 503.892 15.5 503.125C14.35 502.358 13.4417 501.292 12.775 499.925C12.125 498.542 11.8 496.95 11.8 495.15C11.8 493.333 12.125 491.75 12.775 490.4C13.425 489.033 14.3167 487.975 15.45 487.225C16.5833 486.458 17.8667 486.075 19.3 486.075C20.75 486.075 22.0417 486.458 23.175 487.225C24.3083 487.975 25.2 489.033 25.85 490.4C26.5167 491.767 26.85 493.358 26.85 495.175C26.85 496.992 26.5167 498.583 25.85 499.95C25.2 501.317 24.3083 502.383 23.175 503.15C22.0583 503.9 20.7833 504.275 19.35 504.275ZM19.325 500.8C20.0583 500.8 20.6917 500.592 21.225 500.175C21.7583 499.742 22.1667 499.108 22.45 498.275C22.75 497.425 22.9 496.392 22.9 495.175C22.9 493.942 22.75 492.908 22.45 492.075C22.1667 491.242 21.7583 490.617 21.225 490.2C20.6917 489.767 20.05 489.55 19.3 489.55C18.5833 489.55 17.95 489.758 17.4 490.175C16.8667 490.592 16.4583 491.217 16.175 492.05C15.8917 492.883 15.75 493.917 15.75 495.15C15.75 496.383 15.8917 497.417 16.175 498.25C16.4583 499.083 16.8667 499.717 17.4 500.15C17.95 500.583 18.5917 500.8 19.325 500.8ZM33.9754 504.275C32.7587 504.275 31.6421 504.067 30.6254 503.65C29.6087 503.217 28.7504 502.6 28.0504 501.8L30.5754 499.275C30.8921 499.742 31.3504 500.125 31.9504 500.425C32.5671 500.708 33.2171 500.85 33.9004 500.85C34.5171 500.85 35.0504 500.742 35.5004 500.525C35.9504 500.308 36.3004 500 36.5504 499.6C36.8171 499.2 36.9504 498.725 36.9504 498.175C36.9504 497.625 36.8171 497.158 36.5504 496.775C36.3004 496.375 35.9254 496.067 35.4254 495.85C34.9421 495.633 34.3587 495.525 33.6754 495.525C33.3587 495.525 33.0254 495.55 32.6754 495.6C32.3421 495.633 32.0587 495.692 31.8254 495.775L33.5504 493.6C34.0171 493.467 34.4587 493.358 34.8754 493.275C35.3087 493.175 35.7087 493.125 36.0754 493.125C36.9754 493.125 37.7837 493.342 38.5004 493.775C39.2171 494.192 39.7837 494.792 40.2004 495.575C40.6337 496.342 40.8504 497.258 40.8504 498.325C40.8504 499.492 40.5587 500.525 39.9754 501.425C39.4087 502.325 38.6087 503.025 37.5754 503.525C36.5587 504.025 35.3587 504.275 33.9754 504.275ZM31.8254 495.775V493.6L36.1254 488.55L40.5254 488.525L36.0504 493.625L31.8254 495.775ZM29.1504 489.675V486.35H40.5254V488.525L37.4504 489.675H29.1504Z" fill="#21272F"/>
</svg>
