<svg width="100" height="100" viewBox="0 0 100 100" fill="none" xmlns="http://www.w3.org/2000/svg">
<g clip-path="url(#clip0_244_253)">
<path d="M92.858 14.2856H7.14369C5.17125 14.2856 3.57227 15.8846 3.57227 17.8571V74.9999C3.57227 76.9724 5.17125 78.5714 7.14369 78.5714H92.858C94.8304 78.5714 96.4294 76.9724 96.4294 74.9999V17.8571C96.4294 15.8846 94.8304 14.2856 92.858 14.2856Z" stroke="#21272F" stroke-width="7.35714" stroke-linecap="round" stroke-linejoin="round"/>
<path d="M42.8577 78.5713L35.7148 96.4284" stroke="#21272F" stroke-width="7.35714" stroke-linecap="round" stroke-linejoin="round"/>
<path d="M57.1426 78.5713L64.2854 96.4284" stroke="#21272F" stroke-width="7.35714" stroke-linecap="round" stroke-linejoin="round"/>
<path d="M28.5723 96.4287H71.4294" stroke="#21272F" stroke-width="7.35714" stroke-linecap="round" stroke-linejoin="round"/>
<path d="M20.772 56.28C19.2227 56.28 17.8413 55.944 16.628 55.272C15.4333 54.5813 14.4907 53.6387 13.8 52.444C13.1093 51.2493 12.764 49.896 12.764 48.384V36.316H16.572V48.496C16.572 49.3733 16.7493 50.1293 17.104 50.764C17.4773 51.3987 17.9813 51.8933 18.616 52.248C19.2693 52.584 19.988 52.752 20.772 52.752C21.5747 52.752 22.284 52.584 22.9 52.248C23.516 51.8933 24.0013 51.3987 24.356 50.764C24.7293 50.1293 24.916 49.3827 24.916 48.524V36.316H28.752V48.412C28.752 49.924 28.4067 51.2773 27.716 52.472C27.0253 53.648 26.0827 54.5813 24.888 55.272C23.712 55.944 22.34 56.28 20.772 56.28ZM32.5121 56V36.316H36.3201V56H32.5121ZM39.0039 57.316L46.3679 35.056H49.6719L42.3079 57.316H39.0039ZM59.6001 56.28C58.0508 56.28 56.6695 55.944 55.4561 55.272C54.2615 54.5813 53.3188 53.6387 52.6281 52.444C51.9375 51.2493 51.5921 49.896 51.5921 48.384V36.316H55.4001V48.496C55.4001 49.3733 55.5775 50.1293 55.9321 50.764C56.3055 51.3987 56.8095 51.8933 57.4441 52.248C58.0975 52.584 58.8161 52.752 59.6001 52.752C60.4028 52.752 61.1121 52.584 61.7281 52.248C62.3441 51.8933 62.8295 51.3987 63.1841 50.764C63.5575 50.1293 63.7441 49.3827 63.7441 48.524V36.316H67.5801V48.412C67.5801 49.924 67.2348 51.2773 66.5441 52.472C65.8535 53.648 64.9108 54.5813 63.7161 55.272C62.5401 55.944 61.1681 56.28 59.6001 56.28ZM83.616 56L77.96 47.236H77.4L69.728 36.316H74.236L79.864 44.576H80.424L88.068 56H83.616ZM69.392 56L76.756 45.472L79.556 47.348L73.704 56H69.392ZM80.62 46.648L77.82 44.772L83.42 36.316H87.732L80.62 46.648Z" fill="#21272F"/>
</g>
<defs>
<clipPath id="clip0_244_253">
<rect width="100" height="100" fill="white"/>
</clipPath>
</defs>
</svg>
